<?xml version="1.0" encoding="UTF-8"?>
<svg version="1.1" xmlns="http://www.w3.org/2000/svg" width="300" height="100">
<path d="M0 0 C99 0 198 0 300 0 C300 33 300 66 300 100 C201 100 102 100 0 100 C0 67 0 34 0 0 Z " fill="#FDFEFF" transform="translate(0,0)"/>
<path d="M0 0 C2.51625 -0.0825 5.0325 -0.165 7.625 -0.25 C8.79603271 -0.30462402 8.79603271 -0.30462402 9.99072266 -0.36035156 C15.11755106 -0.44104802 17.9165953 0.66685942 22 4 C25.37199066 7.82158942 25.51593698 11.58668629 25.34765625 16.49609375 C24.77981126 20.58585377 23.54618763 22.71675805 21 26 C16.37561043 28.92424634 12.46279634 29.38762309 7.125 29.1875 C4.77375 29.125625 2.4225 29.06375 0 29 C0 19.43 0 9.86 0 0 Z " fill="#44BAFF" transform="translate(82,36)"/>
<path d="M0 0 C1.98 0 3.96 0 6 0 C6.02465622 4.25414623 6.04283899 8.50825498 6.05493164 12.76245117 C6.05997101 14.21070073 6.06680253 15.65894517 6.07543945 17.10717773 C6.08752247 19.18474588 6.09323211 21.26224697 6.09765625 23.33984375 C6.10551147 25.21724243 6.10551147 25.21724243 6.11352539 27.13256836 C6 30 6 30 5 31 C3.33382885 31.04063832 1.66611905 31.042721 0 31 C-0.33 30.34 -0.66 29.68 -1 29 C-1.99 29.66 -2.98 30.32 -4 31 C-6.9375 31.375 -6.9375 31.375 -10 31 C-12.30275556 29.1329009 -13.67823871 27.64352259 -15 25 C-15.49587679 19.95181167 -15.66767696 15.48050108 -13.5625 10.8125 C-9.86190399 8.19500526 -6.40812146 8.3741004 -2 9 C-1.67 9.33 -1.34 9.66 -1 10 C-0.67 6.7 -0.34 3.4 0 0 Z " fill="#47BBFF" transform="translate(284,34)"/>
<path d="M0 0 C1.65 0 3.3 0 5 0 C5 3.63 5 7.26 5 11 C5.99 10.34 6.98 9.68 8 9 C15.11864407 8.3220339 15.11864407 8.3220339 18.4375 10.875 C21.3201131 14.79535382 21.50446637 18.23854544 21 23 C19.43564712 27.0226217 18.61276337 28.59149109 15 31 C11.5896024 31.21314985 9.25468201 31.084894 6 30 C5.67 30.33 5.34 30.66 5 31 C3.35 31 1.7 31 0 31 C0 20.77 0 10.54 0 0 Z " fill="#41B9FF" transform="translate(180,34)"/>
<path d="M0 0 C3.56504994 0.80784383 5.22195936 2.68632629 7.37890625 5.5390625 C7.70890625 5.8690625 8.03890625 6.1990625 8.37890625 6.5390625 C8.73113779 11.82253565 8.89599894 15.29429546 5.37890625 19.5390625 C2.44995028 21.89849925 0.63209122 22.50741438 -3.12109375 22.9765625 C-7.20674664 22.46585589 -8.77918874 21.46455295 -11.62109375 18.5390625 C-13.15166571 13.94734661 -13.68580412 9.21170282 -11.85546875 4.6171875 C-8.74745816 0.0208338 -5.10878588 -0.28932021 0 0 Z " fill="#40B8FF" transform="translate(217.62109375,42.4609375)"/>
<path d="M0 0 C0.845625 -0.01933594 1.69125 -0.03867187 2.5625 -0.05859375 C5.90044183 0.620763 7.03237539 1.67109201 9 4.4375 C9.390625 7.671875 9.390625 7.671875 9.25 11.1875 C9.21390625 12.35796875 9.1778125 13.5284375 9.140625 14.734375 C9.07101563 16.07242188 9.07101563 16.07242188 9 17.4375 C9.66 17.4375 10.32 17.4375 11 17.4375 C11 19.0875 11 20.7375 11 22.4375 C7.28400809 22.63836443 6.22791555 22.5894437 3 20.4375 C2.01 21.0975 1.02 21.7575 0 22.4375 C-3.0875593 22.75912076 -5.14015561 22.92474515 -7.875 21.375 C-9.66235303 18.29678089 -9.43386742 15.90843932 -9 12.4375 C-6.68731879 9.54664849 -4.26458498 9.21736502 -0.75 8.75 C0.4875 8.646875 1.725 8.54375 3 8.4375 C3 7.1175 3 5.7975 3 4.4375 C-0.3 5.0975 -3.6 5.7575 -7 6.4375 C-7.66 5.4475 -8.32 4.4575 -9 3.4375 C-5.96611624 0.78987459 -4.02258121 0.00613198 0 0 Z " fill="#46BBFF" transform="translate(120,42.5625)"/>
<path d="M0 0 C1.28583984 -0.01160156 1.28583984 -0.01160156 2.59765625 -0.0234375 C4.9375 0.375 4.9375 0.375 6.734375 1.44921875 C8.60108603 4.43716854 8.22055728 7.09058552 8.125 10.5625 C8.09792969 11.83480469 8.07085937 13.10710938 8.04296875 14.41796875 C8.00816406 15.39378906 7.97335938 16.36960937 7.9375 17.375 C8.9275 17.375 9.9175 17.375 10.9375 17.375 C10.6075 19.025 10.2775 20.675 9.9375 22.375 C6.56287285 21.82776317 4.85515 21.3201 1.9375 19.375 C1.9375 20.035 1.9375 20.695 1.9375 21.375 C-0.86120027 22.77435013 -2.96748792 22.62765405 -6.0625 22.375 C-7.9375 21.3125 -7.9375 21.3125 -9.0625 19.375 C-9.5 15.875 -9.5 15.875 -9.0625 12.375 C-6.19320364 9.04661622 -2.21393359 8.4128584 1.9375 7.375 C1.9375 6.715 1.9375 6.055 1.9375 5.375 C0.2978125 5.6225 0.2978125 5.6225 -1.375 5.875 C-5.0625 6.375 -5.0625 6.375 -8.0625 6.375 C-8.3925 5.385 -8.7225 4.395 -9.0625 3.375 C-6.00006084 0.68914849 -4.06414341 -0.03677958 0 0 Z " fill="#3FB8FF" transform="translate(239.0625,42.625)"/>
<path d="M0 0 C1.65 0 3.3 0 5 0 C5.33 3.63 5.66 7.26 6 11 C6.66 10.34 7.32 9.68 8 9 C15.25726746 8.42402639 15.25726746 8.42402639 17.60498047 10.24462891 C19.37519351 12.47211084 19.34969372 13.63187846 19.29296875 16.44921875 C19.28330078 17.29677734 19.27363281 18.14433594 19.26367188 19.01757812 C19.23853516 19.89865234 19.21339844 20.77972656 19.1875 21.6875 C19.16719727 23.02651367 19.16719727 23.02651367 19.14648438 24.39257812 C19.11114079 26.59566166 19.06180493 28.79752582 19 31 C17.35 31 15.7 31 14 31 C13.67 25.72 13.34 20.44 13 15 C11.35 14.67 9.7 14.34 8 14 C5.15385976 16.84614024 5.54420924 19.80369142 5.375 23.625 C5.33632812 24.33140625 5.29765625 25.0378125 5.2578125 25.765625 C5.16352276 27.50998524 5.08067109 29.25495691 5 31 C3.35 31 1.7 31 0 31 C0 20.77 0 10.54 0 0 Z " fill="#3DB8FF" transform="translate(155,34)"/>
<path d="M0 0 C3.0216321 0.73251687 4.80104733 2.27158096 6.93359375 4.46875 C8.36021594 7.32199437 8.24393243 9.30329549 7.93359375 12.46875 C6.13365601 15.16865662 4.84982075 17.0106365 1.93359375 18.46875 C-5.06510247 19.15714635 -5.06510247 19.15714635 -9.06640625 16.40625 C-11.60997079 12.67038958 -11.84535528 10.90875949 -11.06640625 6.46875 C-8.111974 1.39081957 -5.74532084 -0.4344288 0 0 Z " fill="#48BCFF" transform="translate(42.06640625,40.53125)"/>
<path d="M0 0 C0.495 1.485 0.495 1.485 1 3 C-0.27875 3.2475 -1.5575 3.495 -2.875 3.75 C-14.77870047 6.4970078 -21.33441084 10.71001694 -28 21.125 C-30.97817418 29.47556681 -29.95080306 39.98468186 -26.2890625 47.9140625 C-24.29691191 51.13772436 -21.76479857 53.42371042 -19 56 C-19 56.99 -19 57.98 -19 59 C-23.26515021 58.25543714 -24.8777135 56.43765612 -27.54296875 53.171875 C-32.52187309 45.75023744 -34.94792089 36.86983114 -34 28 C-31.60931465 17.99080533 -26.73800645 10.04131153 -17.9375 4.5625 C-11.79406837 1.21238094 -7.07310655 -0.28292426 0 0 Z " fill="#4EBEFF" transform="translate(41,17)"/>
<path d="M0 0 C6.48456566 2.89289891 10.66855749 8.80559299 13.3046875 15.28515625 C16.06333847 26.05629346 14.15863192 35.76138131 8.75 45.17578125 C4.07190314 52.23279668 -3.72828705 57.20180153 -12 59 C-14.69142642 59.13751814 -17.30119193 59.09306235 -20 59 C-20 58.01 -20 57.02 -20 56 C-19.154375 55.84144531 -18.30875 55.68289062 -17.4375 55.51953125 C-6.85255307 53.34240012 0.82157382 50.16177838 7 41 C10.99254021 34.31061188 10.77056925 26.54984699 10 19 C8.46282268 13.09446003 5.39364431 8.83408105 1.171875 4.5078125 C0 3 0 3 0 0 Z " fill="#46BBFF" transform="translate(59,24)"/>
<path d="M0 0 C0.86625 -0.00773437 1.7325 -0.01546875 2.625 -0.0234375 C5.39380767 0.44106642 6.26929299 1.22300246 8 3.375 C6.4375 5 6.4375 5 4 6.375 C0.25 5.5625 0.25 5.5625 -3 4.375 C-2.67 5.365 -2.34 6.355 -2 7.375 C0.06758629 8.32501288 0.06758629 8.32501288 2.5 8.9375 C4.96875 9.62890625 4.96875 9.62890625 7 10.375 C8.55938978 13.49377956 8.3607834 15.94755771 8 19.375 C5.20754959 21.99821099 3.29803809 22.34306735 -0.5 22.75 C-4.16527979 22.35729145 -6.05029914 21.52023699 -9 19.375 C-8.34 18.055 -7.68 16.735 -7 15.375 C-3.7 16.035 -0.4 16.695 3 17.375 C2.67 16.385 2.34 15.395 2 14.375 C0.19922327 13.4284089 0.19922327 13.4284089 -1.9375 12.8125 C-4.72850228 11.91593484 -5.87774645 11.49725355 -8 9.375 C-8.55648937 4.14399988 -8.55648937 4.14399988 -6.79296875 1.70703125 C-4.42916563 -0.04908392 -2.92146841 -0.02608454 0 0 Z " fill="#42B9FF" transform="translate(142,42.625)"/>
<path d="M0 0 C9 0 9 0 11.5625 1.4375 C13.71110743 5.26762629 13.64253478 8.70878559 13 13 C11.6875 16 11.6875 16 10 18 C7 19 7 19 0 19 C0 12.73 0 6.46 0 0 Z " fill="#FAFDFF" transform="translate(88,41)"/>
<path d="M0 0 C0.99 0 1.98 0 3 0 C2.875 1.6875 2.875 1.6875 2 4 C1.071875 4.721875 0.14375 5.44375 -0.8125 6.1875 C-5.74244826 10.04830285 -7.67719891 15.41759132 -8.4375 21.5 C-7.422779 29.61776796 -5.47018257 34.34511131 0.96484375 39.58984375 C5.25895003 42.56522257 8.7854945 43.39832629 14 44 C14.33 44.99 14.66 45.98 15 47 C7.86444473 47.4459722 2.81180567 45.81940367 -3.1875 41.9375 C-7.902754 37.7246911 -11.38217731 30.31593276 -12.2734375 24.08984375 C-12.61480558 16.85546642 -10.22827681 10.92529112 -5.625 5.328125 C-4.47197358 4.16137207 -3.24070822 3.07304494 -2 2 C-1.34 1.34 -0.68 0.68 0 0 Z " fill="#49BCFF" transform="translate(27,28)"/>
<path d="M0 0 C8.27430902 0.18651106 13.72894298 1.92825897 19.7578125 7.67578125 C25.59715069 14.03699267 26.47232168 20.33717193 26.30859375 28.8125 C25.5939661 36.19397038 21.797588 40.64739549 16.68359375 45.75 C15 47 15 47 12 47 C12.125 45.3125 12.125 45.3125 13 43 C14.49770791 41.7953219 15.995941 40.5912705 17.5 39.39453125 C20.86585778 36.26533534 21.81463935 32.74547942 22.28125 28.3515625 C22.5228596 21.00260368 21.16513832 16.58080568 17.375 10.3125 C12.66399918 5.72547288 6.48260425 3.66488249 0 3 C0 2.01 0 1.02 0 0 Z " fill="#46BBFF" transform="translate(39,25)"/>
<path d="M0 0 C4.33333333 0 8.66666667 0 13 0 C12.67 1.65 12.34 3.3 12 5 C10.02 5.66 8.04 6.32 6 7 C5.67 11.95 5.34 16.9 5 22 C3.35 22 1.7 22 0 22 C0 14.74 0 7.48 0 0 Z " fill="#3EB8FF" transform="translate(254,43)"/>
<path d="M0 0 C0 0.99 0 1.98 0 3 C-1.8253125 3.37125 -1.8253125 3.37125 -3.6875 3.75 C-8.35914911 4.92411358 -11.44865139 6.85766145 -14.3125 10.8125 C-15.72095645 15.29395233 -15.43416579 18.92492282 -13.6875 23.25 C-12.27078633 25.55871858 -11.0410083 27.25056432 -9 29 C-9.33 29.99 -9.66 30.98 -10 32 C-13.93263652 30.14292164 -16.24856457 27.98720417 -18.26953125 24.09375 C-19.67512204 20.06489085 -19.6788823 16.18413172 -19 12 C-14.95717667 3.75886013 -9.00231238 -0.16670949 0 0 Z " fill="#4BBCFF" transform="translate(42,33)"/>
<path d="M0 0 C3.04261908 0.3259949 3.9801219 0.97895261 6.125 3.25 C9.58985322 8.33178472 10.40394774 11.73486582 9.5390625 17.7890625 C8.4555112 22.23319318 5.88428569 25.0651837 2.8125 28.3125 C-1.02631426 30.61578856 -4.58969737 30.80782995 -9 31 C-8.505 29.515 -8.505 29.515 -8 28 C-6.07421875 27.26171875 -6.07421875 27.26171875 -3.6875 26.6875 C-0.28030087 25.62410664 0.95475921 25.04524079 3.5625 22.4375 C5.48537069 17.83933096 5.69654348 13.91677752 5 9 C3.30596911 5.21634468 3.30596911 5.21634468 0 3 C0 2.01 0 1.02 0 0 Z " fill="#51BFFF" transform="translate(48,36)"/>
<path d="M0 0 C3.4375 0.8125 3.4375 0.8125 5.4375 3.8125 C4.99305556 9.25694444 4.99305556 9.25694444 2.4375 11.8125 C-1 12.1875 -1 12.1875 -4.5625 11.8125 C-6.5625 10.1875 -6.5625 10.1875 -7.5625 7.8125 C-7.4375 4.6875 -7.4375 4.6875 -6.5625 1.8125 C-3.5625 -0.1875 -3.5625 -0.1875 0 0 Z " fill="#F6FBFF" transform="translate(41.5625,44.1875)"/>
<path d="M0 0 C2 2 2 2 2.265625 4.09375 C2.26046875 4.8878125 2.2553125 5.681875 2.25 6.5 C2.25515625 7.2940625 2.2603125 8.088125 2.265625 8.90625 C2 11 2 11 0 13 C-3 13.3125 -3 13.3125 -6 13 C-8.46324069 9.30513897 -8.38991688 7.36706908 -8 3 C-5.94362059 -0.35514536 -3.76397853 -0.48256135 0 0 Z " fill="#F2FAFF" transform="translate(218,47)"/>
<path d="M0 0 C2.4375 0.8125 2.4375 0.8125 4.4375 2.8125 C4.75287716 7.14893601 4.88647847 9.13903229 2.4375 12.8125 C-0.5625 13.1875 -0.5625 13.1875 -3.5625 12.8125 C-6.02574069 9.11763897 -5.95241688 7.17956908 -5.5625 2.8125 C-3.9058551 0.02236122 -3.24544844 -0.23747184 0 0 Z " fill="#F3FAFF" transform="translate(279.5625,47.1875)"/>
<path d="M0 0 C2.9375 0.375 2.9375 0.375 6 1 C7.11445498 3.22890995 7.16480286 4.53055106 7.1875 7 C7.20167969 7.70125 7.21585938 8.4025 7.23046875 9.125 C7 11 7 11 5 13 C2.19015752 13.36023622 0.61758081 13.38332602 -1.8125 11.875 C-3.55957504 9.11646047 -3.39203417 7.20161236 -3 4 C-1.5 1.625 -1.5 1.625 0 0 Z " fill="#F4FBFF" transform="translate(188,47)"/>
<path d="M0 0 C0.33 0.99 0.66 1.98 1 3 C-3.46110884 7.69061926 -6.75613543 9.66558274 -13.27734375 9.9921875 C-13.84582031 9.99476562 -14.41429687 9.99734375 -15 10 C-14.67 9.01 -14.34 8.02 -14 7 C-12.109375 6.19140625 -12.109375 6.19140625 -9.75 5.5625 C-5.76379922 4.36727552 -3.08089886 2.88213119 0 0 Z " fill="#45BAFF" transform="translate(54,57)"/>
<path d="M0 0 C0.125 2.375 0.125 2.375 0 5 C-0.66 5.66 -1.32 6.32 -2 7 C-4.625 6.625 -4.625 6.625 -7 6 C-6.67 4.35 -6.34 2.7 -6 1 C-3.92446352 0.4465236 -2.15634036 0 0 0 Z " fill="#EDF8FF" transform="translate(242,54)"/>
<path d="M0 0 C0.125 2.375 0.125 2.375 0 5 C-0.66 5.66 -1.32 6.32 -2 7 C-4.625 6.625 -4.625 6.625 -7 6 C-7 4.68 -7 3.36 -7 2 C-2.25 0 -2.25 0 0 0 Z " fill="#EAF7FF" transform="translate(123,54)"/>
</svg>
